# xmcd
# Copyright (c) 1998 CDDB Inc.
#
# Track frame offsets:
#	150
#	13735
#	31979
#	50890
#	65230
#	80189
#	94662
#	114423
#	127558
#	149265
#	167405
#
# Disc length: 2493 seconds
#
# Revision: 1
# Processed by: cddbd v1.4b41PL1 Copyright (c) Steve Scherf et al.
# Submitted via: audiograbber 1.70
#
DISCID=9209bb0b
DTITLE=Chainides - Me kontra ton ilio -
DYEAR=1900
DGENRE=
TTITLE0=Chainides - me kontra ton ilio - Vathi kokin` chili
TTITLE1=Chainides - me kontra ton ilio - O sarakinos koursaros o alh
TTITLE2=Chainides - me kontra ton ilio - O ervtas ki o thanatos
TTITLE3=Chainides - me kontra ton ilio - Tis thalasas ta kymata
TTITLE4=Chainides - me kontra ton ilio - To tajidi tou fegariou
TTITLE5=Chainides - me kontra ton ilio - Sourmerlim
TTITLE6=Chainides - me kontra ton ilio - O akrobaths
TTITLE7=Chainides - me kontra ton ilio - I mhkrh elpida
TTITLE8=Chainides - me kontra ton ilio - I agaph
TTITLE9=Chainides - me kontra ton ilio - Kai jhmervnei pali
TTITLE10=Chainides - me kontra ton ilio - T` astro toy notia
EXTD=
EXTT0=
EXTT1=
EXTT2=
EXTT3=
EXTT4=
EXTT5=
EXTT6=
EXTT7=
EXTT8=
EXTT9=
EXTT10=
PLAYORDER=
